<mxfile host="app.diagrams.net" modified="2024-01-13T11:44:50.504Z" agent="Mozilla/5.0 (Windows NT 10.0; Win64; x64) AppleWebKit/537.36 (KHTML, like Gecko) Chrome/120.0.0.0 Safari/537.36 Edg/120.0.0.0" version="21.6.6" etag="L-pB-mBAnkUo3j0icCMf" type="github">
  <diagram name="Page-1" id="xlAYYuINX23ItXQp9MkJ">
    <mxGraphModel>
      <root>
        <mxCell id="0" />
        <mxCell id="1" parent="0" />
      </root>
    </mxGraphModel>
  </diagram>
</mxfile>
